<?xml version="1.0" encoding="utf-8"?>
<!-- Generator: Adobe Illustrator 24.0.0, SVG Export Plug-In . SVG Version: 6.00 Build 0)  -->
<svg version="1.1" id="Layer_1" xmlns="http://www.w3.org/2000/svg" xmlns:xlink="http://www.w3.org/1999/xlink" x="0px" y="0px"
	 viewBox="0 0 24 24" style="enable-background:new 0 0 24 24;" xml:space="preserve">
<style type="text/css">
	.st0{fill:#F2F2EA;}
</style>
<path class="st0" d="M0,0v24h24V0H0z M7.3,20.6H3.7V9.1h3.6V20.6z M5.5,7.6c-1.1,0-2.1-0.9-2.1-2.1s0.9-2.1,2.1-2.1
	c1.1,0,2.1,0.9,2.1,2.1C7.5,6.6,6.6,7.6,5.5,7.6z M20.6,20.6H17V15c0-1.3,0-3-1.8-3c-1.9,0-2.1,1.4-2.1,2.9v5.7H9.5V9.1h3.4v1.6h0
	c0.5-0.9,1.6-1.8,3.4-1.8c3.6,0,4.3,2.4,4.3,5.5L20.6,20.6L20.6,20.6z"/>
</svg>
