<?xml version="1.0" encoding="utf-8"?>
<!-- Generator: Adobe Illustrator 24.0.0, SVG Export Plug-In . SVG Version: 6.00 Build 0)  -->
<svg version="1.1" id="Layer_1" xmlns="http://www.w3.org/2000/svg" xmlns:xlink="http://www.w3.org/1999/xlink" x="0px" y="0px"
	 viewBox="0 0 24 24" style="enable-background:new 0 0 24 24;" xml:space="preserve">
<style type="text/css">
	.st0{fill:#F2F2EA;}
</style>
<path class="st0" d="M0,0v24h24V0H0z M11.4,9.1L11.4,9.1c0,0.2-0.1,0.3-0.3,0.3H8.7v6.9c0,0.2-0.1,0.3-0.3,0.3H6.6
	c-0.2,0-0.3-0.1-0.3-0.3V9.4H3.9c-0.2,0-0.3-0.1-0.3-0.3V7.7c0-0.2,0.1-0.3,0.3-0.3h7.2c0.2,0,0.3,0.1,0.3,0.3V9.1z M16.3,14.9
	c0.8,0,1.4-0.3,1.6-1.2c0.1-0.3,0.2-0.3,0.4-0.3h1.8c0.2,0,0.3,0.1,0.3,0.3c0,2-1.8,3.2-4.1,3.2c-2.5,0-4-1.2-4.1-3.6
	c0-0.7,0-1.6,0-2.4c0.1-2.3,1.7-3.6,4.1-3.6c2.4,0,4.1,1.2,4.1,3.2c0,0.2-0.1,0.3-0.3,0.3h-1.8c-0.2,0-0.3-0.1-0.4-0.3
	c-0.3-0.9-0.8-1.2-1.6-1.2c-1,0-1.6,0.5-1.6,1.8c0,0.7,0,1.5,0,2.2C14.7,14.4,15.3,14.9,16.3,14.9z"/>
</svg>
