<?xml version="1.0" encoding="utf-8"?>
<!-- Generator: Adobe Illustrator 24.0.0, SVG Export Plug-In . SVG Version: 6.00 Build 0)  -->
<svg version="1.1" id="Layer_1" xmlns="http://www.w3.org/2000/svg" xmlns:xlink="http://www.w3.org/1999/xlink" x="0px" y="0px"
	 viewBox="0 0 180.85 27.77" style="enable-background:new 0 0 180.85 27.77;" xml:space="preserve">
<style type="text/css">
	.st0{fill:#F2F2EA;}
	.st1{clip-path:url(#SVGID_2_);}
</style>
<g id="Group_4463_1_" transform="translate(-112 -98.606)">
	<path id="Path_10232_1_" class="st0" d="M281.37,110.6h0.54l0.8,2.75h-2.13L281.37,110.6z M280.3,109.52
		c-0.06,0-0.09,0.05-0.11,0.09l-2.26,6.72c-0.01,0.04-0.02,0.08-0.03,0.11c0,0.03,0.03,0.06,0.08,0.06h1.66
		c0.06,0,0.09-0.06,0.12-0.12l0.51-1.93h2.75l0.51,1.93c0.03,0.06,0.06,0.12,0.12,0.12h1.56c0.05,0,0.08-0.03,0.08-0.06
		c-0.01-0.04-0.02-0.08-0.03-0.11l-2.15-6.72c-0.03-0.03-0.09-0.09-0.12-0.09L280.3,109.52z M123.05,109.49v4.79
		c0,3.35-1.36,5.31-4.6,5.31h-2.35l-0.68,6.44h3.38c6.01,0,10.75-4.37,10.75-11.26v-5.28L123.05,109.49z M286.45,113.01
		c0,2.61,0.85,3.6,3.72,3.6c0.67-0.01,1.33-0.08,1.99-0.2h-0.02c0.51-0.14,0.62-0.34,0.62-0.83v-2.9c0-0.08-0.03-0.11-0.11-0.11H290
		c-0.09,0-0.11,0.03-0.11,0.11v0.85c-0.01,0.07,0.04,0.14,0.11,0.15c0,0,0,0,0,0l1.13,0.11v1.67c0,0-0.48,0.03-0.91,0.03
		c-1.33,0-2.04-0.37-2.04-2.44c0-2.15,0.77-2.5,2.24-2.5c0.57,0.01,1.15,0.08,1.71,0.2c0.02,0.03,0.08,0.03,0.14,0.03
		c0.07,0.02,0.15,0.02,0.23,0.03c0.09,0,0.11-0.05,0.14-0.19l0.08-0.46c0.02-0.07,0.03-0.15,0.03-0.22c0-0.09-0.08-0.11-0.14-0.17
		c-0.84-0.27-1.72-0.41-2.61-0.39C287.5,109.38,286.45,110.35,286.45,113.01 M255.35,109.16c-1.87,0-3.73,0.18-5.56,0.56
		c-1.82,0.4-2.78,0.74-2.78,1.82v13.9c0,0.22,0.17,0.39,0.38,0.4c0.01,0,0.01,0,0.02,0h4.56c0.22,0.01,0.4-0.17,0.4-0.38
		c0-0.01,0-0.01,0-0.02v-12.21c1.19-0.18,2.4-0.26,3.6-0.25c0.57,0,0.57-0.31,0.57-0.66v-2.52c0-0.49-0.23-0.65-0.66-0.65
		L255.35,109.16z M138.23,114.29c0,4.14,2.78,4.74,4.91,5.14l0.31,0.05c1.47,0.29,2.13,0.46,2.13,1.76c0,1.28-1.14,1.59-2.19,1.59
		c-1.45-0.05-2.89-0.27-4.28-0.65h0.03c-0.03,0-0.06-0.03-0.08-0.03c-0.1-0.03-0.21-0.05-0.31-0.06c-0.14,0-0.28,0.11-0.32,0.4
		l-0.34,2.01c-0.03,0.14-0.05,0.28-0.06,0.42c0,0.2,0.08,0.28,0.31,0.4c1.88,0.59,3.85,0.89,5.82,0.88c3.89,0,6.84-1.37,6.84-5.42
		c0-3.89-2.29-4.63-4.51-5.02l-0.46-0.08c-1.27-0.23-2.39-0.46-2.39-1.76c0-1.3,1.34-1.47,2.27-1.47c1.07,0.02,2.13,0.14,3.18,0.37
		c0.18,0.05,0.37,0.08,0.57,0.09c0.17-0.02,0.32-0.13,0.4-0.29c0.12-0.68,0.29-1.39,0.4-2.07c0.01-0.07,0.02-0.15,0.03-0.22
		c0-0.34-0.14-0.48-0.59-0.6c-1.58-0.41-3.2-0.62-4.82-0.62C142.35,109.1,138.23,109.55,138.23,114.29 M158.91,117.7
		c0-3.63,0.14-5.11,2.63-5.11s2.64,1.48,2.64,5.11c0,3.6-0.14,5.05-2.64,5.05C159.05,122.75,158.91,121.3,158.91,117.7
		 M153.44,117.7c0,4.82,0.96,8.54,8.11,8.54s8.12-3.72,8.12-8.54c0-4.85-0.96-8.6-8.12-8.6S153.44,112.85,153.44,117.7
		 M232.89,120.82c0-1.79,0.91-2.02,2.1-2.21l2.81-0.46v4.59c-0.73,0.2-1.48,0.29-2.24,0.29
		C234.47,123.03,232.89,122.8,232.89,120.82 M229.2,110.26c-0.2,0.09-0.4,0.2-0.4,0.43v0.11c0,0.03,0.03,0.06,0.03,0.09l0.54,2.35
		c0.01,0.14,0.14,0.24,0.28,0.23c0,0,0,0,0.01,0c0.08,0,0.15-0.01,0.23-0.03c1.67-0.49,3.4-0.77,5.14-0.85
		c0.71-0.05,1.42,0.05,2.1,0.28c0.6,0.29,0.68,0.8,0.68,1.62v0.71l-5.36,0.85c-2.04,0.31-4.68,0.93-4.68,4.82
		c0,4.83,3.85,5.37,7.72,5.37c1.53,0.04,3.06-0.1,4.57-0.4c2.04-0.49,3.1-0.88,3.1-3.27v-8.57c0.16-1.61-0.65-3.16-2.05-3.97
		c-1.51-0.72-3.18-1.04-4.85-0.93C233.84,109.11,231.47,109.5,229.2,110.26 M263.03,116.48c0-0.72,0.04-1.44,0.14-2.16
		c0.22-1.08,0.83-1.79,2.47-1.79c1.53,0,2.24,0.59,2.52,1.59c0.14,0.72,0.2,1.45,0.17,2.18v0.45h-5.3L263.03,116.48z M257.55,117.78
		c0,6.36,2.86,8.46,8.97,8.46c1.98-0.01,3.95-0.36,5.82-1.02c0.24-0.07,0.42-0.28,0.43-0.54c0-0.08-0.01-0.15-0.03-0.23l-0.46-1.87
		v0.03c-0.11-0.4-0.29-0.48-0.51-0.48c-0.12,0.01-0.25,0.02-0.37,0.06h0.03c-1.28,0.4-2.61,0.62-3.95,0.65
		c-1.05,0.08-2.1-0.09-3.07-0.49c-0.91-0.51-1.43-1.51-1.33-2.55h9.65c0.65,0,0.76-0.46,0.76-0.88v-1.5c0-2.84-0.48-5.02-1.65-6.38
		c-1.22-1.19-3.26-1.93-6.21-1.93C259.62,109.1,257.55,111.45,257.55,117.78 M173.95,107.45v2.04h-2.41
		c-0.21-0.01-0.39,0.16-0.4,0.38c0,0.01,0,0.01,0,0.02v2.92c-0.01,0.22,0.17,0.39,0.38,0.4c0.01,0,0.01,0,0.02,0h2.41v12.23
		c-0.01,0.21,0.16,0.39,0.38,0.4c0.01,0,0.01,0,0.02,0h4.6c0.22,0,0.39-0.17,0.4-0.38c0-0.01,0-0.01,0-0.02v-12.23h7.32v7.6
		c0,3.89,1.96,5.28,5.82,5.28c1.34,0.02,2.68-0.17,3.97-0.57c0.31-0.11,0.43-0.25,0.43-0.51c0-0.09-0.01-0.17-0.03-0.25l-0.43-2.24
		c-0.06-0.26-0.17-0.34-0.34-0.34c-0.08,0-0.15,0.01-0.22,0.03c-0.05,0.01-0.09,0.02-0.14,0.03c-0.59,0.09-1.19,0.14-1.79,0.14
		c-1.65,0-1.93-0.76-1.93-1.9v-7.24h8.09v10.64c0,1.05,0.97,1.39,2.72,1.79c1.6,0.35,3.22,0.54,4.85,0.59
		c1.85,0.1,3.68-0.4,5.22-1.42c1.86,1,3.95,1.49,6.07,1.42c3.8,0,6.39-0.91,6.39-4.71v-11.66c0.01-0.21-0.16-0.39-0.38-0.4
		c-0.01,0-0.01,0-0.02,0h-4.57c-0.21-0.01-0.39,0.16-0.4,0.38c0,0.01,0,0.01,0,0.02v10.9c0,1.67-1.02,2.18-2.32,2.18
		c-0.76-0.03-1.51-0.13-2.25-0.32v-12.77c0.01-0.21-0.16-0.39-0.37-0.4c-0.01,0-0.01,0-0.02,0h-4.57c-0.21-0.01-0.39,0.16-0.4,0.38
		c0,0.01,0,0.01,0,0.02v10.9c0,1.67-0.68,2.18-1.93,2.18c-0.89-0.03-1.79-0.12-2.67-0.28v-12.8c0.01-0.21-0.16-0.39-0.38-0.4
		c-0.01,0-0.01,0-0.02,0H192v-5.05c0.04-0.26-0.14-0.5-0.4-0.53c-0.04-0.01-0.08-0.01-0.11,0c-0.11,0.01-0.23,0.03-0.34,0.06
		l-3.92,0.68c-0.37,0.07-0.62,0.42-0.56,0.79v4.06h-7.32v-1.79c-0.06-0.46,0.08-0.93,0.4-1.28c0.44-0.3,0.98-0.43,1.51-0.37
		c0.52,0.01,1.04,0.06,1.56,0.14c0.06,0,0.11,0.03,0.2,0.03c0.13,0.03,0.26,0.05,0.39,0.06c0.2,0,0.26-0.14,0.28-0.4l0.34-2.27
		c0.01-0.08,0.02-0.17,0.03-0.25c0.02-0.21-0.11-0.4-0.31-0.46c-1.4-0.38-2.84-0.57-4.29-0.54
		C175.69,102.37,173.95,104.07,173.95,107.45 M122.48,98.65c-6.3,0-10.47,4.66-10.47,10.98v5.93h6.5v-5.45c0-3.4,1.42-5.02,4.6-5.02
		h2.29l0.68-6.44L122.48,98.65z"/>
	<g>
		<defs>
			<path id="SVGID_1_" d="M281.37,110.6h0.54l0.8,2.75h-2.13L281.37,110.6z M280.3,109.52c-0.06,0-0.09,0.05-0.11,0.09l-2.26,6.72
				c-0.01,0.04-0.02,0.08-0.03,0.11c0,0.03,0.03,0.06,0.08,0.06h1.66c0.06,0,0.09-0.06,0.12-0.12l0.51-1.93h2.75l0.51,1.93
				c0.03,0.06,0.06,0.12,0.12,0.12h1.56c0.05,0,0.08-0.03,0.08-0.06c-0.01-0.04-0.02-0.08-0.03-0.11l-2.15-6.72
				c-0.03-0.03-0.09-0.09-0.12-0.09L280.3,109.52z M123.05,109.49v4.79c0,3.35-1.36,5.31-4.6,5.31h-2.35l-0.68,6.44h3.38
				c6.01,0,10.75-4.37,10.75-11.26v-5.28L123.05,109.49z M286.45,113.01c0,2.61,0.85,3.6,3.72,3.6c0.67-0.01,1.33-0.08,1.99-0.2
				h-0.02c0.51-0.14,0.62-0.34,0.62-0.83v-2.9c0-0.08-0.03-0.11-0.11-0.11H290c-0.09,0-0.11,0.03-0.11,0.11v0.85
				c-0.01,0.07,0.04,0.14,0.11,0.15c0,0,0,0,0,0l1.13,0.11v1.67c0,0-0.48,0.03-0.91,0.03c-1.33,0-2.04-0.37-2.04-2.44
				c0-2.15,0.77-2.5,2.24-2.5c0.57,0.01,1.15,0.08,1.71,0.2c0.02,0.03,0.08,0.03,0.14,0.03c0.07,0.02,0.15,0.02,0.23,0.03
				c0.09,0,0.11-0.05,0.14-0.19l0.08-0.46c0.02-0.07,0.03-0.15,0.03-0.22c0-0.09-0.08-0.11-0.14-0.17
				c-0.84-0.27-1.72-0.41-2.61-0.39C287.5,109.38,286.45,110.35,286.45,113.01 M255.35,109.16c-1.87,0-3.73,0.18-5.56,0.56
				c-1.82,0.4-2.78,0.74-2.78,1.82v13.9c0,0.22,0.17,0.39,0.38,0.4c0.01,0,0.01,0,0.02,0h4.56c0.22,0.01,0.4-0.17,0.4-0.38
				c0-0.01,0-0.01,0-0.02v-12.21c1.19-0.18,2.4-0.26,3.6-0.25c0.57,0,0.57-0.31,0.57-0.66v-2.52c0-0.49-0.23-0.65-0.66-0.65
				L255.35,109.16z M138.23,114.29c0,4.14,2.78,4.74,4.91,5.14l0.31,0.05c1.47,0.29,2.13,0.46,2.13,1.76c0,1.28-1.14,1.59-2.19,1.59
				c-1.45-0.05-2.89-0.27-4.28-0.65h0.03c-0.03,0-0.06-0.03-0.08-0.03c-0.1-0.03-0.21-0.05-0.31-0.06c-0.14,0-0.28,0.11-0.32,0.4
				l-0.34,2.01c-0.03,0.14-0.05,0.28-0.06,0.42c0,0.2,0.08,0.28,0.31,0.4c1.88,0.59,3.85,0.89,5.82,0.88c3.89,0,6.84-1.37,6.84-5.42
				c0-3.89-2.29-4.63-4.51-5.02l-0.46-0.08c-1.27-0.23-2.39-0.46-2.39-1.76c0-1.3,1.34-1.47,2.27-1.47
				c1.07,0.02,2.13,0.14,3.18,0.37c0.18,0.05,0.37,0.08,0.57,0.09c0.17-0.02,0.32-0.13,0.4-0.29c0.12-0.68,0.29-1.39,0.4-2.07
				c0.01-0.07,0.02-0.15,0.03-0.22c0-0.34-0.14-0.48-0.59-0.6c-1.58-0.41-3.2-0.62-4.82-0.62
				C142.35,109.1,138.23,109.55,138.23,114.29 M158.91,117.7c0-3.63,0.14-5.11,2.63-5.11s2.64,1.48,2.64,5.11
				c0,3.6-0.14,5.05-2.64,5.05C159.05,122.75,158.91,121.3,158.91,117.7 M153.44,117.7c0,4.82,0.96,8.54,8.11,8.54
				s8.12-3.72,8.12-8.54c0-4.85-0.96-8.6-8.12-8.6S153.44,112.85,153.44,117.7 M232.89,120.82c0-1.79,0.91-2.02,2.1-2.21l2.81-0.46
				v4.59c-0.73,0.2-1.48,0.29-2.24,0.29C234.47,123.03,232.89,122.8,232.89,120.82 M229.2,110.26c-0.2,0.09-0.4,0.2-0.4,0.43v0.11
				c0,0.03,0.03,0.06,0.03,0.09l0.54,2.35c0.01,0.14,0.14,0.24,0.28,0.23c0,0,0,0,0.01,0c0.08,0,0.15-0.01,0.23-0.03
				c1.67-0.49,3.4-0.77,5.14-0.85c0.71-0.05,1.42,0.05,2.1,0.28c0.6,0.29,0.68,0.8,0.68,1.62v0.71l-5.36,0.85
				c-2.04,0.31-4.68,0.93-4.68,4.82c0,4.83,3.85,5.37,7.72,5.37c1.53,0.04,3.06-0.1,4.57-0.4c2.04-0.49,3.1-0.88,3.1-3.27v-8.57
				c0.16-1.61-0.65-3.16-2.05-3.97c-1.51-0.72-3.18-1.04-4.85-0.93C233.84,109.11,231.47,109.5,229.2,110.26 M263.03,116.48
				c0-0.72,0.04-1.44,0.14-2.16c0.22-1.08,0.83-1.79,2.47-1.79c1.53,0,2.24,0.59,2.52,1.59c0.14,0.72,0.2,1.45,0.17,2.18v0.45h-5.3
				L263.03,116.48z M257.55,117.78c0,6.36,2.86,8.46,8.97,8.46c1.98-0.01,3.95-0.36,5.82-1.02c0.24-0.07,0.42-0.28,0.43-0.54
				c0-0.08-0.01-0.15-0.03-0.23l-0.46-1.87v0.03c-0.11-0.4-0.29-0.48-0.51-0.48c-0.12,0.01-0.25,0.02-0.37,0.06h0.03
				c-1.28,0.4-2.61,0.62-3.95,0.65c-1.05,0.08-2.1-0.09-3.07-0.49c-0.91-0.51-1.43-1.51-1.33-2.55h9.65c0.65,0,0.76-0.46,0.76-0.88
				v-1.5c0-2.84-0.48-5.02-1.65-6.38c-1.22-1.19-3.26-1.93-6.21-1.93C259.62,109.1,257.55,111.45,257.55,117.78 M173.95,107.45v2.04
				h-2.41c-0.21-0.01-0.39,0.16-0.4,0.38c0,0.01,0,0.01,0,0.02v2.92c-0.01,0.22,0.17,0.39,0.38,0.4c0.01,0,0.01,0,0.02,0h2.41v12.23
				c-0.01,0.21,0.16,0.39,0.38,0.4c0.01,0,0.01,0,0.02,0h4.6c0.22,0,0.39-0.17,0.4-0.38c0-0.01,0-0.01,0-0.02v-12.23h7.32v7.6
				c0,3.89,1.96,5.28,5.82,5.28c1.34,0.02,2.68-0.17,3.97-0.57c0.31-0.11,0.43-0.25,0.43-0.51c0-0.09-0.01-0.17-0.03-0.25
				l-0.43-2.24c-0.06-0.26-0.17-0.34-0.34-0.34c-0.08,0-0.15,0.01-0.22,0.03c-0.05,0.01-0.09,0.02-0.14,0.03
				c-0.59,0.09-1.19,0.14-1.79,0.14c-1.65,0-1.93-0.76-1.93-1.9v-7.24h8.09v10.64c0,1.05,0.97,1.39,2.72,1.79
				c1.6,0.35,3.22,0.54,4.85,0.59c1.85,0.1,3.68-0.4,5.22-1.42c1.86,1,3.95,1.49,6.07,1.42c3.8,0,6.39-0.91,6.39-4.71v-11.66
				c0.01-0.21-0.16-0.39-0.38-0.4c-0.01,0-0.01,0-0.02,0h-4.57c-0.21-0.01-0.39,0.16-0.4,0.38c0,0.01,0,0.01,0,0.02v10.9
				c0,1.67-1.02,2.18-2.32,2.18c-0.76-0.03-1.51-0.13-2.25-0.32v-12.77c0.01-0.21-0.16-0.39-0.37-0.4c-0.01,0-0.01,0-0.02,0h-4.57
				c-0.21-0.01-0.39,0.16-0.4,0.38c0,0.01,0,0.01,0,0.02v10.9c0,1.67-0.68,2.18-1.93,2.18c-0.89-0.03-1.79-0.12-2.67-0.28v-12.8
				c0.01-0.21-0.16-0.39-0.38-0.4c-0.01,0-0.01,0-0.02,0H192v-5.05c0.04-0.26-0.14-0.5-0.4-0.53c-0.04-0.01-0.08-0.01-0.11,0
				c-0.11,0.01-0.23,0.03-0.34,0.06l-3.92,0.68c-0.37,0.07-0.62,0.42-0.56,0.79v4.06h-7.32v-1.79c-0.06-0.46,0.08-0.93,0.4-1.28
				c0.44-0.3,0.98-0.43,1.51-0.37c0.52,0.01,1.04,0.06,1.56,0.14c0.06,0,0.11,0.03,0.2,0.03c0.13,0.03,0.26,0.05,0.39,0.06
				c0.2,0,0.26-0.14,0.28-0.4l0.34-2.27c0.01-0.08,0.02-0.17,0.03-0.25c0.02-0.21-0.11-0.4-0.31-0.46c-1.4-0.38-2.84-0.57-4.29-0.54
				C175.69,102.37,173.95,104.07,173.95,107.45 M122.48,98.65c-6.3,0-10.47,4.66-10.47,10.98v5.93h6.5v-5.45
				c0-3.4,1.42-5.02,4.6-5.02h2.29l0.68-6.44L122.48,98.65z"/>
		</defs>
		<use xlink:href="#SVGID_1_"  style="overflow:visible;fill:#F2F2EA;"/>
		<clipPath id="SVGID_2_">
			<use xlink:href="#SVGID_1_"  style="overflow:visible;"/>
		</clipPath>
		<g id="Group_4614_1_" transform="translate(112 98.606)" class="st1">
			<rect id="Rectangle_1876_1_" x="0.01" y="0.05" class="st0" width="180.74" height="27.61"/>
		</g>
	</g>
</g>
</svg>
